<svg width="216" height="216" viewBox="0 0 216 216" fill="none" xmlns="http://www.w3.org/2000/svg">
<rect width="215.137" height="215.137" rx="50" fill="#C0BCBC" fill-opacity="0.39"/>
<g clip-path="url(#clip0_141_15)">
<path d="M83.5049 181C97.0262 181 108 170.024 108 156.5V132H83.5049C69.9836 132 59.0098 142.976 59.0098 156.5C59.0098 170.024 69.9836 181 83.5049 181Z" fill="#0ACF83"/>
<path d="M59.0098 107.5C59.0098 93.976 69.9836 83 83.5049 83H108V132H83.5049C69.9836 132 59.0098 121.024 59.0098 107.5Z" fill="#A259FF"/>
<path d="M59.0098 58.5C59.0098 44.976 69.9837 34 83.505 34H108V83H83.505C69.9837 83 59.0098 72.024 59.0098 58.5Z" fill="#F24E1E"/>
<path d="M108 34H132.495C146.016 34 156.99 44.976 156.99 58.5C156.99 72.024 146.016 83 132.495 83H108V34Z" fill="#FF7262"/>
<path d="M156.99 107.5C156.99 121.024 146.016 132 132.495 132C118.974 132 108 121.024 108 107.5C108 93.976 118.974 83 132.495 83C146.016 83 156.99 93.976 156.99 107.5Z" fill="#1ABCFE"/>
</g>
<defs>
<clipPath id="clip0_141_15">
<rect width="98" height="147" fill="white" transform="translate(59 34)"/>
</clipPath>
</defs>
</svg>
