<svg width="105" height="105" viewBox="0 0 105 105" fill="none" xmlns="http://www.w3.org/2000/svg">
<path d="M15.3125 87.5C13.5625 87.5 12.0313 86.8438 10.7188 85.5313C9.40625 84.2188 8.75 82.6875 8.75 80.9375V24.0625C8.75 22.3125 9.40625 20.7812 10.7188 19.4687C12.0313 18.1562 13.5625 17.5 15.3125 17.5H89.6875C91.4375 17.5 92.9687 18.1562 94.2812 19.4687C95.5937 20.7812 96.25 22.3125 96.25 24.0625V80.9375C96.25 82.6875 95.5937 84.2188 94.2812 85.5313C92.9687 86.8438 91.4375 87.5 89.6875 87.5H15.3125ZM52.5 54.4688L15.3125 30.0781V80.9375H89.6875V30.0781L52.5 54.4688ZM52.5 47.9063L89.25 24.0625H15.8594L52.5 47.9063ZM15.3125 30.0781V24.0625V80.9375V30.0781Z" fill="white"/>
</svg>
