<svg width="105" height="105" viewBox="0 0 105 105" fill="none" xmlns="http://www.w3.org/2000/svg">
<path d="M34.8906 77.6562H70.1094V71.0938H34.8906V77.6562ZM34.8906 59.0625H70.1094V52.5H34.8906V59.0625ZM24.0625 96.25C22.3125 96.25 20.7812 95.5938 19.4687 94.2812C18.1562 92.9688 17.5 91.4375 17.5 89.6875V15.3125C17.5 13.5625 18.1562 12.0313 19.4687 10.7188C20.7812 9.40625 22.3125 8.75 24.0625 8.75H63.5469L87.5 32.7031V89.6875C87.5 91.4375 86.8438 92.9688 85.5312 94.2812C84.2188 95.5938 82.6875 96.25 80.9375 96.25H24.0625ZM60.2656 35.6562V15.3125H24.0625V89.6875H80.9375V35.6562H60.2656ZM24.0625 15.3125V35.6562V15.3125V89.6875V15.3125Z" fill="white"/>
</svg>
